<svg xmlns="http://www.w3.org/2000/svg" xmlns:xlink="http://www.w3.org/1999/xlink" width="500" zoomAndPan="magnify" viewBox="0 0 375 374.999991" height="500" preserveAspectRatio="xMidYMid meet" version="1.2"><defs/><g id="c5bedb5a2a"><g style="fill:#ffffff;fill-opacity:1;"><g transform="translate(5.000698, 204.621112)"><path style="stroke:none" d="M 26.664062 -8.5625 C 29.535156 -8.5625 30.570312 -7.929688 30.570312 -6.035156 C 30.570312 -5.230469 30.453125 -4.941406 29.707031 -3.964844 C 29.25 -3.332031 29.074219 -2.816406 29.074219 -2.242188 C 29.074219 -0.691406 30.109375 0.34375 31.546875 0.34375 C 32.007812 0.34375 32.753906 0.289062 33.617188 0.230469 C 34.996094 0.113281 37.695312 0 39.648438 0 C 41.546875 0 45.050781 0.113281 46.601562 0.230469 C 47.695312 0.289062 48.671875 0.34375 49.1875 0.34375 C 50.566406 0.34375 51.371094 -0.515625 51.371094 -2.011719 C 51.371094 -2.757812 51.199219 -3.160156 50.507812 -4.136719 C 49.246094 -5.976562 49.128906 -6.320312 48.210938 -10.628906 C 46.890625 -16.777344 42.925781 -29.652344 40.339844 -36.199219 C 37.464844 -43.613281 36.429688 -45.164062 34.535156 -45.164062 C 34.074219 -45.164062 33.386719 -45.109375 32.582031 -45.050781 C 31.144531 -44.878906 28.847656 -44.761719 26.375 -44.761719 C 23.214844 -44.761719 19.9375 -44.878906 18.734375 -45.050781 C 18.101562 -45.109375 17.410156 -45.164062 17.125 -45.164062 C 15.34375 -45.164062 14.421875 -43.957031 12.125 -38.785156 C 9.023438 -31.949219 5.058594 -19.824219 3.046875 -11.207031 C 2.355469 -8.21875 2.011719 -6.839844 1.894531 -6.609375 C 1.492188 -5.457031 1.492188 -5.402344 0.402344 -4.195312 C -0.230469 -3.390625 -0.515625 -2.816406 -0.515625 -2.070312 C -0.515625 -0.632812 0.402344 0.34375 1.839844 0.34375 C 2.242188 0.34375 2.988281 0.289062 3.851562 0.230469 C 5.113281 0.113281 8.101562 0 9.941406 0 C 11.605469 0 13.214844 0.0585938 14.480469 0.230469 C 15.171875 0.289062 15.800781 0.34375 16.203125 0.34375 C 17.296875 0.34375 18.15625 -0.691406 18.15625 -2.070312 C 18.15625 -2.988281 18.042969 -3.332031 17.355469 -4.253906 C 16.894531 -4.941406 16.722656 -5.402344 16.722656 -6.035156 C 16.722656 -7.757812 17.753906 -8.5625 20.113281 -8.5625 Z M 22.296875 -20.285156 C 20.398438 -20.285156 19.710938 -20.6875 19.710938 -21.894531 C 19.710938 -23.15625 20.628906 -26.316406 21.949219 -29.59375 C 22.871094 -31.832031 23.273438 -32.410156 23.960938 -32.410156 C 24.59375 -32.410156 24.765625 -32.179688 25.972656 -28.902344 C 26.890625 -26.433594 27.695312 -23.15625 27.695312 -21.949219 C 27.695312 -20.800781 26.949219 -20.285156 25.398438 -20.285156 Z M 22.296875 -20.285156 "/></g></g><g style="fill:#ffffff;fill-opacity:1;"><g transform="translate(55.73874, 204.621112)"><path style="stroke:none" d="M 31.085938 -25.511719 C 29.132812 -25.511719 28.730469 -25.457031 28.269531 -25.226562 C 27.695312 -24.882812 27.351562 -24.132812 27.351562 -23.328125 C 27.351562 -22.121094 27.695312 -21.777344 29.476562 -21.03125 C 30.914062 -20.457031 31.488281 -19.535156 31.488281 -17.8125 C 31.488281 -15.054688 29.652344 -13.503906 26.433594 -13.503906 C 21.777344 -13.503906 19.136719 -16.605469 19.136719 -22.121094 C 19.136719 -28.386719 22.523438 -31.71875 28.960938 -31.71875 C 31.546875 -31.71875 37.0625 -30.855469 39.707031 -29.996094 C 44.246094 -28.617188 44.246094 -28.617188 44.878906 -28.617188 C 45.914062 -28.617188 46.945312 -29.652344 46.945312 -30.683594 C 46.945312 -31.085938 46.773438 -31.660156 46.488281 -32.351562 C 45.222656 -35.511719 44.246094 -39.363281 44.015625 -42.0625 C 43.902344 -44.933594 43.269531 -45.738281 40.96875 -45.738281 C 40.28125 -45.738281 39.765625 -45.566406 39.304688 -45.109375 C 38.5 -44.417969 38.441406 -44.359375 38.097656 -44.359375 C 37.753906 -44.359375 37.351562 -44.417969 36.890625 -44.53125 C 33.789062 -45.394531 29.304688 -46.027344 26.203125 -46.027344 C 10.226562 -46.027344 1.265625 -37.695312 1.265625 -22.871094 C 1.265625 -7.238281 10.34375 1.265625 27.007812 1.265625 C 33.5 1.265625 38.960938 0.113281 43.902344 -2.242188 C 46.3125 -3.332031 47.234375 -4.308594 47.234375 -5.746094 C 47.234375 -6.261719 47.175781 -6.953125 47.0625 -7.757812 C 46.714844 -9.941406 46.601562 -12.8125 46.601562 -17.355469 C 46.601562 -19.136719 46.660156 -20.457031 46.714844 -21.433594 C 46.773438 -22.179688 46.832031 -22.871094 46.832031 -23.273438 C 46.832031 -24.996094 46.085938 -25.511719 43.613281 -25.511719 Z M 31.085938 -25.511719 "/></g></g><g style="fill:#ffffff;fill-opacity:1;"><g transform="translate(104.523109, 204.621112)"><path style="stroke:none" d="M 8.847656 -9.597656 L 8.792969 -8.042969 L 8.792969 -6.550781 C 8.734375 -5.6875 8.5625 -5.171875 8.101562 -4.425781 C 7.183594 -2.988281 7.125 -2.816406 7.125 -1.953125 C 7.125 -0.574219 8.042969 0.34375 9.480469 0.34375 C 10 0.34375 10.804688 0.289062 11.722656 0.230469 C 13.5625 0.0585938 15.457031 0 18.101562 0 C 20.917969 0 22.925781 0.0585938 24.535156 0.289062 C 25.339844 0.34375 26.085938 0.402344 26.488281 0.402344 C 27.8125 0.402344 28.730469 -0.574219 28.730469 -1.953125 C 28.730469 -2.757812 28.671875 -2.875 27.753906 -4.425781 C 27.179688 -5.402344 27.066406 -5.804688 27.066406 -7.527344 L 27.007812 -9.597656 L 27.007812 -27.640625 C 27.007812 -29.59375 27.351562 -30.050781 28.789062 -30.050781 C 29.824219 -30.050781 30.683594 -29.878906 31.433594 -29.476562 C 33.671875 -28.328125 33.671875 -28.328125 34.417969 -28.328125 C 35.570312 -28.328125 36.488281 -29.25 36.488281 -30.453125 C 36.488281 -30.855469 36.375 -31.546875 36.257812 -32.179688 C 35.625 -34.765625 35.109375 -38.328125 34.765625 -41.601562 C 34.535156 -44.1875 33.730469 -45.164062 31.71875 -45.164062 C 31.085938 -45.164062 29.9375 -45.109375 28.671875 -44.992188 C 26.605469 -44.761719 23.960938 -44.707031 18.789062 -44.707031 C 13.503906 -44.707031 10.6875 -44.761719 7.988281 -44.992188 C 6.609375 -45.109375 5.285156 -45.164062 4.65625 -45.164062 C 2.585938 -45.164062 1.722656 -44.304688 1.4375 -42.121094 C 0.976562 -37.351562 0.632812 -35.453125 -0.289062 -32.292969 C -0.515625 -31.605469 -0.632812 -30.972656 -0.632812 -30.570312 C -0.632812 -29.476562 0.460938 -28.5 1.722656 -28.5 C 2.355469 -28.5 2.585938 -28.617188 3.503906 -29.304688 C 4.539062 -29.996094 5.632812 -30.398438 6.664062 -30.398438 C 7.527344 -30.398438 8.390625 -30.050781 8.621094 -29.535156 C 8.792969 -29.304688 8.847656 -28.789062 8.847656 -27.640625 Z M 8.847656 -9.597656 "/></g></g><g style="fill:#ffffff;fill-opacity:1;"><g transform="translate(140.03399, 204.621112)"><path style="stroke:none" d=""/></g></g><g style="fill:#ffffff;fill-opacity:1;"><g transform="translate(152.158259, 204.621112)"><path style="stroke:none" d="M 22.582031 0 C 24.078125 0 25.167969 0.0585938 26.777344 0.230469 C 27.523438 0.289062 28.15625 0.34375 28.671875 0.34375 C 30.109375 0.34375 30.914062 -0.230469 32.007812 -2.242188 C 34.074219 -5.859375 36.316406 -11.550781 38.210938 -18.042969 C 40.796875 -26.949219 41.660156 -30.339844 42.523438 -35.109375 C 43.097656 -38.097656 43.382812 -39.015625 44.359375 -40.394531 C 45.394531 -41.773438 45.511719 -42.0625 45.511719 -42.808594 C 45.511719 -44.1875 44.476562 -45.164062 43.097656 -45.164062 C 42.523438 -45.164062 41.71875 -45.109375 40.855469 -44.992188 C 39.1875 -44.820312 37.925781 -44.761719 36.601562 -44.761719 C 35.109375 -44.761719 32.0625 -44.878906 31.03125 -44.992188 C 30.167969 -45.109375 29.476562 -45.164062 29.074219 -45.164062 C 27.753906 -45.164062 26.777344 -44.074219 26.777344 -42.695312 C 26.777344 -42.0625 26.949219 -41.429688 27.351562 -40.683594 C 28.042969 -39.417969 28.15625 -39.1875 28.15625 -38.441406 C 28.15625 -36.199219 26.835938 -28.042969 26.085938 -25.398438 C 25.226562 -22.46875 25.167969 -22.351562 24.59375 -22.351562 C 24.078125 -22.351562 23.730469 -22.8125 23.214844 -24.421875 C 21.894531 -28.269531 20.457031 -35.511719 20.457031 -38.269531 C 20.457031 -39.015625 20.570312 -39.476562 21.089844 -40.511719 C 21.546875 -41.429688 21.664062 -41.949219 21.664062 -42.695312 C 21.664062 -44.1875 20.6875 -45.164062 19.191406 -45.164062 C 18.789062 -45.164062 18.101562 -45.109375 17.296875 -44.992188 C 15.859375 -44.820312 14.367188 -44.761719 12.296875 -44.761719 C 9.078125 -44.761719 5.746094 -44.878906 4.078125 -45.050781 C 3.046875 -45.109375 2.183594 -45.164062 1.609375 -45.164062 C 0.113281 -45.164062 -0.917969 -44.074219 -0.917969 -42.578125 C -0.917969 -41.773438 -0.746094 -41.316406 -0.0585938 -40.394531 C 1.148438 -38.84375 1.265625 -38.613281 1.78125 -35.742188 C 2.929688 -29.476562 7.929688 -12.757812 10.402344 -7.066406 C 12.871094 -1.320312 14.136719 0.34375 15.972656 0.34375 C 16.375 0.34375 17.066406 0.289062 17.753906 0.230469 C 18.90625 0.113281 21.089844 0 22.582031 0 Z M 22.582031 0 "/></g></g><g style="fill:#ffffff;fill-opacity:1;"><g transform="translate(196.690516, 204.621112)"><path style="stroke:none" d="M 2.988281 -9.597656 C 2.988281 -6.320312 2.875 -5.402344 2.242188 -4.425781 C 1.320312 -2.929688 1.265625 -2.816406 1.265625 -2.011719 C 1.265625 -0.574219 2.183594 0.34375 3.5625 0.34375 C 4.078125 0.34375 4.882812 0.289062 5.859375 0.230469 C 7.355469 0.113281 9.882812 0 11.605469 0 C 13.617188 0 16.203125 0.113281 17.527344 0.289062 C 18.332031 0.34375 19.078125 0.402344 19.480469 0.402344 C 20.800781 0.402344 21.71875 -0.574219 21.71875 -1.953125 C 21.71875 -2.757812 21.664062 -2.929688 20.742188 -4.425781 C 20.113281 -5.457031 19.996094 -6.207031 19.996094 -9.597656 L 19.996094 -26.433594 C 19.996094 -29.824219 20.113281 -30.570312 20.742188 -31.605469 C 21.664062 -33.039062 21.71875 -33.269531 21.71875 -34.074219 C 21.71875 -35.570312 20.800781 -36.429688 19.308594 -36.429688 C 18.734375 -36.429688 18.101562 -36.375 17.527344 -36.316406 C 13.617188 -35.742188 13.617188 -35.742188 11.835938 -35.742188 C 10.054688 -35.742188 9.195312 -35.800781 5.859375 -36.257812 C 5 -36.375 4.195312 -36.429688 3.621094 -36.429688 C 2.183594 -36.429688 1.265625 -35.511719 1.265625 -34.074219 C 1.265625 -33.269531 1.320312 -33.097656 2.242188 -31.605469 C 2.875 -30.628906 2.988281 -29.707031 2.988281 -26.433594 Z M 11.605469 -47.980469 C 5.515625 -47.980469 2.242188 -46.429688 2.242188 -43.5 C 2.242188 -40.453125 5.113281 -39.074219 11.492188 -39.074219 C 17.929688 -39.074219 20.800781 -40.453125 20.800781 -43.5 C 20.800781 -46.371094 17.527344 -47.980469 11.605469 -47.980469 Z M 11.605469 -47.980469 "/></g></g><g style="fill:#ffffff;fill-opacity:1;"><g transform="translate(219.674905, 204.621112)"><path style="stroke:none" d="M 40.742188 -41.488281 C 40.742188 -43.785156 40.742188 -43.785156 40.511719 -44.304688 C 40.222656 -44.820312 39.589844 -45.164062 38.785156 -45.164062 C 38.5 -45.164062 37.808594 -45.109375 37.0625 -44.992188 C 35.914062 -44.878906 34.015625 -44.761719 32.523438 -44.761719 C 31.085938 -44.761719 30.050781 -44.820312 27.925781 -45.050781 C 26.949219 -45.109375 25.972656 -45.164062 25.339844 -45.164062 C 23.789062 -45.164062 22.871094 -44.304688 22.871094 -42.75 C 22.871094 -41.949219 22.925781 -41.773438 23.847656 -40.28125 C 24.363281 -39.476562 24.59375 -38.558594 24.59375 -37.121094 C 24.59375 -36.257812 24.191406 -35.742188 23.617188 -35.742188 C 23.386719 -35.742188 23.042969 -35.800781 22.640625 -35.972656 C 20.859375 -36.601562 18.847656 -36.949219 16.664062 -36.949219 C 7.011719 -36.949219 0.917969 -29.652344 0.917969 -18.214844 C 0.917969 -6.550781 7.066406 1.035156 16.433594 1.035156 C 19.710938 1.035156 22.121094 0 24.132812 -2.242188 C 24.882812 -2.988281 25.109375 -3.21875 25.457031 -3.21875 C 25.859375 -3.21875 26.144531 -2.816406 26.203125 -2.125 C 26.316406 -0.289062 26.890625 0.402344 28.214844 0.402344 C 28.558594 0.402344 29.191406 0.34375 29.765625 0.289062 C 31.03125 0.113281 32.234375 0 33.441406 0 C 34.707031 0 37.0625 0.113281 38.269531 0.289062 C 39.074219 0.34375 39.820312 0.402344 40.222656 0.402344 C 41.546875 0.402344 42.464844 -0.574219 42.464844 -1.953125 C 42.464844 -2.816406 42.40625 -2.875 41.488281 -4.425781 C 40.914062 -5.402344 40.796875 -5.804688 40.796875 -7.585938 L 40.742188 -9.597656 Z M 24.535156 -16.722656 C 24.535156 -13.273438 23.558594 -11.605469 21.546875 -11.605469 C 19.25 -11.605469 17.929688 -13.847656 17.929688 -17.984375 C 17.929688 -22.238281 19.191406 -24.480469 21.605469 -24.480469 C 23.675781 -24.480469 24.535156 -23.042969 24.535156 -19.765625 Z M 24.535156 -16.722656 "/></g></g><g style="fill:#ffffff;fill-opacity:1;"><g transform="translate(263.402699, 204.621112)"><path style="stroke:none" d="M 2.988281 -9.597656 C 2.988281 -6.320312 2.875 -5.402344 2.242188 -4.425781 C 1.320312 -2.929688 1.265625 -2.816406 1.265625 -2.011719 C 1.265625 -0.574219 2.183594 0.34375 3.621094 0.34375 C 4.078125 0.34375 4.941406 0.289062 5.859375 0.230469 C 7.355469 0.113281 9.882812 0 11.664062 0 C 13.617188 0 16.203125 0.113281 17.582031 0.289062 C 18.386719 0.34375 19.136719 0.402344 19.535156 0.402344 C 20.859375 0.402344 21.777344 -0.515625 21.777344 -1.953125 C 21.777344 -2.816406 21.71875 -2.875 20.800781 -4.425781 C 20.226562 -5.34375 20.113281 -5.804688 20.113281 -7.585938 L 20.054688 -9.597656 L 20.054688 -12.585938 C 20.054688 -13.675781 19.996094 -14.539062 19.9375 -14.882812 C 19.535156 -17.179688 19.535156 -17.179688 19.535156 -17.640625 C 19.535156 -19.480469 20.972656 -20.972656 22.753906 -20.972656 L 23.675781 -20.917969 C 25.285156 -20.628906 25.285156 -20.628906 25.742188 -20.628906 C 26.777344 -20.628906 27.582031 -21.492188 27.582031 -22.582031 C 27.582031 -22.871094 27.523438 -23.503906 27.410156 -24.304688 C 27.292969 -24.9375 27.238281 -25.742188 27.238281 -26.835938 C 27.238281 -28.671875 27.351562 -30.628906 27.46875 -31.71875 C 27.582031 -32.695312 27.640625 -33.5 27.640625 -34.015625 C 27.640625 -35.683594 26.605469 -36.488281 24.480469 -36.488281 C 22.121094 -36.488281 19.996094 -35.800781 18.386719 -34.476562 C 17.582031 -33.789062 17.355469 -33.671875 16.953125 -33.671875 C 16.664062 -33.671875 16.492188 -33.84375 16.375 -34.246094 C 15.746094 -36.144531 15.515625 -36.429688 14.539062 -36.429688 C 14.25 -36.429688 13.734375 -36.375 13.214844 -36.316406 C 12.066406 -36.085938 11.207031 -36.027344 9.882812 -36.027344 C 8.503906 -36.027344 7.757812 -36.085938 5.859375 -36.316406 C 5 -36.375 4.195312 -36.429688 3.621094 -36.429688 C 2.183594 -36.429688 1.265625 -35.511719 1.265625 -34.074219 C 1.265625 -33.269531 1.320312 -33.097656 2.242188 -31.605469 C 2.875 -30.628906 2.988281 -29.707031 2.988281 -26.433594 Z M 2.988281 -9.597656 "/></g></g><g style="fill:#ffffff;fill-opacity:1;"><g transform="translate(291.558584, 204.621112)"><path style="stroke:none" d="M 21.777344 -37.464844 C 16.320312 -37.464844 12.355469 -36.488281 8.847656 -34.304688 C 3.851562 -31.144531 0.917969 -25.167969 0.917969 -17.929688 C 0.917969 -10.859375 3.851562 -4.882812 8.847656 -1.722656 C 12.183594 0.402344 16.375 1.4375 21.546875 1.4375 C 26.71875 1.4375 30.914062 0.402344 34.246094 -1.722656 C 39.246094 -4.882812 42.175781 -10.859375 42.175781 -17.984375 C 42.175781 -30.167969 34.535156 -37.464844 21.777344 -37.464844 Z M 21.605469 -24.996094 C 24.019531 -24.996094 25.167969 -22.753906 25.167969 -18.15625 C 25.167969 -13.847656 23.960938 -11.605469 21.605469 -11.605469 C 19.191406 -11.605469 17.929688 -13.847656 17.929688 -18.101562 C 17.929688 -22.46875 19.25 -24.996094 21.605469 -24.996094 Z M 21.605469 -24.996094 "/></g></g><g style="fill:#ffffff;fill-opacity:1;"><g transform="translate(334.654303, 204.621112)"><path style="stroke:none" d="M 31.546875 -34.476562 C 31.546875 -35.625 30.339844 -36.660156 28.960938 -36.660156 C 28.558594 -36.660156 28.214844 -36.601562 27.8125 -36.375 C 27.179688 -36.027344 27.121094 -36.027344 26.835938 -36.027344 C 26.546875 -36.027344 26.261719 -36.085938 25.859375 -36.144531 C 22.121094 -37.0625 20.398438 -37.292969 17.582031 -37.292969 C 7.46875 -37.292969 1.492188 -32.636719 1.492188 -24.824219 C 1.492188 -19.59375 4.308594 -16.320312 10.226562 -14.652344 C 14.421875 -13.445312 14.882812 -13.160156 14.882812 -11.894531 C 14.882812 -10.917969 14.019531 -10.226562 12.757812 -10.226562 C 10.804688 -10.226562 7.929688 -10.976562 5.804688 -12.007812 C 3.273438 -13.273438 3.273438 -13.273438 2.644531 -13.273438 C 1.609375 -13.273438 0.746094 -12.410156 0.746094 -11.378906 C 0.746094 -10.917969 0.804688 -10.457031 0.917969 -9.882812 L 1.78125 -6.550781 L 2.070312 -3.449219 C 2.070312 -1.550781 2.070312 -1.207031 2.472656 -0.515625 C 2.875 0.230469 3.621094 0.632812 4.425781 0.632812 C 4.882812 0.632812 5.457031 0.515625 5.804688 0.34375 C 6.839844 -0.230469 6.839844 -0.230469 7.183594 -0.230469 C 7.46875 -0.230469 7.816406 -0.171875 8.273438 -0.0585938 C 11.605469 0.863281 14.480469 1.265625 18.042969 1.265625 C 28.386719 1.265625 34.417969 -3.332031 34.417969 -11.207031 C 34.417969 -16.261719 31.433594 -19.765625 25.972656 -21.144531 C 19.824219 -22.640625 19.824219 -22.640625 19.824219 -23.902344 C 19.824219 -24.996094 20.859375 -25.742188 22.410156 -25.742188 C 23.847656 -25.742188 25.339844 -25.398438 27.753906 -24.535156 C 30.453125 -23.558594 30.570312 -23.558594 31.03125 -23.558594 C 31.832031 -23.558594 32.582031 -24.363281 32.582031 -25.226562 C 32.582031 -25.628906 32.464844 -26.203125 32.351562 -26.835938 C 31.832031 -28.671875 31.433594 -30.914062 31.433594 -31.777344 Z M 31.546875 -34.476562 "/></g></g></g></svg>