<svg xmlns="http://www.w3.org/2000/svg" xmlns:v="https://svgstorm.com"
viewBox = "0 0 224 120"
width="224"
height="120">
<g fill="None" fill-opacity="0.0" stroke="#FDFEFD" stroke-opacity="1.00" stroke-width="0.3"><path d="
M 0.00 120.00 
L 224.00 120.00
L 224.00 0.00
L 0.00 0.00
L 0.00 120.00
M 119.00 54.00 
C 118.97 54.50 118.76 55.80 119.00 56.00
C 122.84 59.08 119.15 63.85 120.00 69.00
C 125.44 69.77 126.94 64.44 126.00 60.00
C 126.91 52.45 129.72 55.49 136.00 54.00
C 137.43 53.66 138.90 52.67 141.00 53.00
C 142.94 53.31 145.63 56.77 147.00 57.00
C 154.82 52.14 160.40 58.51 160.00 66.00
C 159.88 68.23 159.65 69.92 159.00 72.00
C 155.62 72.02 153.62 75.01 151.00 75.00
C 154.39 75.56 158.88 74.06 159.00 79.00
C 151.05 78.85 144.87 77.88 137.00 79.00
C 137.58 76.02 140.42 73.30 139.00 78.00
C 141.47 74.63 146.52 73.53 145.00 78.00
C 146.98 75.74 148.99 76.06 151.00 78.00
C 152.82 76.28 150.50 76.40 150.00 75.00
C 149.38 73.55 149.19 73.16 148.00 72.00
C 146.72 70.75 144.53 69.90 144.00 68.00
C 142.98 76.52 129.32 70.44 135.00 63.00
C 134.36 61.41 130.89 61.82 131.00 62.00
C 130.55 65.29 129.64 68.71 129.00 72.00
C 125.30 71.44 122.75 71.45 119.00 72.00
C 122.48 80.59 107.14 76.19 105.00 74.00
C 105.49 77.83 99.62 77.37 100.00 81.00
C 91.01 83.52 91.83 77.32 90.00 72.00
C 89.31 68.76 90.43 63.28 90.00 59.00
C 83.42 58.80 83.88 67.28 84.00 72.00
C 82.22 71.75 78.64 73.03 79.00 70.00
C 78.86 69.66 78.25 69.25 78.00 69.00
C 78.39 70.73 76.98 71.19 76.00 72.00
C 70.92 76.19 65.82 71.92 65.00 68.00
C 63.87 62.60 64.14 59.21 69.00 56.00
C 71.33 54.46 72.47 54.15 75.07 54.93 C 77.68 55.71 78.86 58.75 81.00 57.00
C 81.00 56.50 81.00 56.00 81.00 56.00
C 83.04 53.89 87.43 55.66 90.00 54.00
C 89.07 52.86 88.92 51.45 89.00 50.00
C 88.86 49.55 89.00 49.00 89.00 49.00
C 84.91 47.14 86.60 39.33 91.01 40.01 C 95.42 40.68 96.91 44.51 101.00 43.00
C 101.91 42.58 103.06 40.48 104.00 40.00
C 113.11 35.38 111.76 47.34 119.00 48.00
C 119.00 50.00 119.00 52.00 119.00 54.00
M 137.00 75.00 
C 133.77 82.91 125.38 75.83 119.00 79.00
C 119.47 73.40 122.51 76.58 126.03 75.03 C 129.56 73.48 133.47 77.36 137.00 75.00 Z"/>
</g>
<g fill="None" fill-opacity="0.0" stroke="#FDF6DF" stroke-opacity="1.00" stroke-width="0.3"><path d="
M 104.00 40.00 
C 107.27 39.02 111.44 40.72 112.00 44.00
C 112.17 45.02 112.24 47.00 112.00 48.00
C 113.85 47.47 116.11 48.40 118.00 48.00
C 118.00 50.00 118.00 52.00 118.00 54.00
C 118.22 53.75 119.00 54.00 119.00 54.00
C 119.00 52.00 119.00 50.00 119.00 48.00
C 111.76 47.34 113.11 35.38 104.00 40.00 Z"/>
</g>
<g fill="None" fill-opacity="0.0" stroke="#F5F3CC" stroke-opacity="1.00" stroke-width="0.3"><path d="
M 89.00 49.00 
C 89.00 48.50 89.00 48.00 89.00 48.00
C 82.73 40.02 97.32 42.52 101.00 47.00
C 100.88 46.04 101.00 44.97 101.00 44.00
C 101.00 43.50 101.00 43.00 101.00 43.00
C 96.91 44.51 95.42 40.68 91.01 40.01 C 86.60 39.33 84.91 47.14 89.00 49.00 Z"/>
</g>
<g fill="None" fill-opacity="0.0" stroke="#E8B991" stroke-opacity="1.00" stroke-width="0.3"><path d="
M 101.00 43.00 
C 104.34 45.24 107.36 42.67 112.00 44.00
C 111.44 40.72 107.27 39.02 104.00 40.00
C 103.06 40.48 101.91 42.58 101.00 43.00 Z"/>
</g>
<g fill="None" fill-opacity="0.0" stroke="#D1DA57" stroke-opacity="1.00" stroke-width="0.3"><path d="
M 89.00 48.00 
C 92.35 50.12 99.51 61.04 99.00 64.00
C 98.34 67.85 95.07 70.25 94.00 74.00
C 93.83 74.95 94.26 78.43 95.00 80.00
C 97.62 80.48 103.69 72.33 106.00 71.00
C 109.24 69.13 109.03 73.38 113.00 75.00
C 115.12 75.40 117.56 76.17 117.00 72.00
C 116.93 71.51 117.00 71.00 117.00 71.00
C 115.41 70.28 114.54 68.81 115.00 67.00
C 111.28 59.66 115.64 57.40 117.00 49.00
C 111.43 47.94 106.07 60.59 103.00 51.00
C 102.05 49.51 101.22 48.81 101.00 47.00
C 97.32 42.52 82.73 40.02 89.00 48.00 Z"/>
</g>
<g fill="None" fill-opacity="0.0" stroke="#E09253" stroke-opacity="1.00" stroke-width="0.3"><path d="
M 101.00 44.00 
C 101.51 45.53 104.93 49.42 105.00 51.00
C 107.05 51.94 111.18 51.35 112.00 48.00
C 112.24 47.00 112.17 45.02 112.00 44.00
C 107.36 42.67 104.34 45.24 101.00 43.00
C 101.00 43.00 101.00 43.50 101.00 44.00 Z"/>
</g>
<g fill="None" fill-opacity="0.0" stroke="#947731" stroke-opacity="1.00" stroke-width="0.3"><path d="
M 101.00 47.00 
C 101.22 48.81 102.05 49.51 103.00 51.00
C 103.42 51.18 104.59 50.81 105.00 51.00
C 104.93 49.42 101.51 45.53 101.00 44.00
C 101.00 44.97 100.88 46.04 101.00 47.00 Z"/>
</g>
<g fill="None" fill-opacity="0.0" stroke="#7A9147" stroke-opacity="1.00" stroke-width="0.3"><path d="
M 89.00 49.00 
C 89.00 49.00 88.86 49.55 89.00 50.00
C 90.62 52.01 92.82 54.33 90.00 56.00
C 91.30 56.20 92.69 55.85 94.00 56.00
C 93.95 57.76 95.53 59.07 95.00 61.00
C 95.91 62.09 98.54 61.66 99.00 64.00
C 99.51 61.04 92.35 50.12 89.00 48.00
C 89.00 48.00 89.00 48.50 89.00 49.00 Z"/>
</g>
<g fill="None" fill-opacity="0.0" stroke="#EEEFAB" stroke-opacity="1.00" stroke-width="0.3"><path d="
M 105.00 51.00 
C 104.59 50.81 103.42 51.18 103.00 51.00
C 106.07 60.59 111.43 47.94 117.00 49.00
C 115.64 57.40 111.28 59.66 115.00 67.00
C 115.09 66.65 115.89 66.26 116.00 66.00
C 116.02 65.50 116.03 64.50 116.00 64.00
C 112.90 61.44 115.09 57.32 118.00 54.00
C 118.00 52.00 118.00 50.00 118.00 48.00
C 116.11 48.40 113.85 47.47 112.00 48.00
C 111.18 51.35 107.05 51.94 105.00 51.00 Z"/>
</g>
<g fill="None" fill-opacity="0.0" stroke="#D8EFDA" stroke-opacity="1.00" stroke-width="0.3"><path d="
M 81.00 56.00 
C 83.90 55.87 87.32 55.59 90.00 56.00
C 92.82 54.33 90.62 52.01 89.00 50.00
C 88.92 51.45 89.07 52.86 90.00 54.00
C 87.43 55.66 83.04 53.89 81.00 56.00 Z"/>
</g>
<g fill="None" fill-opacity="0.0" stroke="#1C4738" stroke-opacity="1.00" stroke-width="0.3"><path d="
M 136.00 54.00 
C 134.70 54.83 135.90 56.07 133.00 56.00
C 132.71 59.93 133.25 56.94 135.00 60.00
C 135.25 60.43 135.07 62.49 135.00 63.00
C 129.32 70.44 142.98 76.52 144.00 68.00
C 144.53 69.90 146.72 70.75 148.00 72.00
C 152.22 73.19 158.84 70.32 160.00 66.00
C 160.40 58.51 154.82 52.14 147.00 57.00
C 145.81 57.74 145.68 59.60 144.00 60.00
C 142.38 62.69 144.35 69.08 139.00 68.00
C 138.33 65.06 140.09 62.82 140.00 60.00
C 141.29 58.60 142.31 59.58 144.00 59.00
C 145.39 55.23 139.65 56.87 141.00 53.00
C 138.90 52.67 137.43 53.66 136.00 54.00
M 153.00 59.00 
C 157.18 60.39 154.83 69.50 149.99 67.99 C 145.16 66.48 149.49 57.83 153.00 59.00 Z"/>
</g>
<g fill="None" fill-opacity="0.0" stroke="#D4EFE7" stroke-opacity="1.00" stroke-width="0.3"><path d="
M 144.00 59.00 
C 145.21 58.59 145.74 57.25 147.00 57.00
C 145.63 56.77 142.94 53.31 141.00 53.00
C 139.65 56.87 145.39 55.23 144.00 59.00 Z"/>
</g>
<g fill="None" fill-opacity="0.0" stroke="#C1DBD2" stroke-opacity="1.00" stroke-width="0.3"><path d="
M 69.00 56.00 
C 72.70 54.88 75.51 56.50 78.00 58.00
C 78.41 58.24 80.54 59.63 81.00 59.00
C 81.03 58.50 81.00 57.50 81.00 57.00
C 78.86 58.75 77.68 55.71 75.07 54.93 C 72.47 54.15 71.33 54.46 69.00 56.00 Z"/>
</g>
<g fill="None" fill-opacity="0.0" stroke="#D6EBD6" stroke-opacity="1.00" stroke-width="0.3"><path d="
M 116.00 64.00 
C 115.70 59.73 116.09 58.10 119.00 56.00
C 118.76 55.80 118.97 54.50 119.00 54.00
C 119.00 54.00 118.22 53.75 118.00 54.00
C 115.09 57.32 112.90 61.44 116.00 64.00 Z"/>
</g>
<g fill="None" fill-opacity="0.0" stroke="#C7E2DA" stroke-opacity="1.00" stroke-width="0.3"><path d="
M 126.00 60.00 
C 126.25 59.10 127.79 57.54 127.00 56.00
C 128.33 56.00 129.67 56.00 131.00 56.00
C 131.49 56.07 132.50 55.99 133.00 56.00
C 135.90 56.07 134.70 54.83 136.00 54.00
C 129.72 55.49 126.91 52.45 126.00 60.00 Z"/>
</g>
<g fill="None" fill-opacity="0.0" stroke="#1A4634" stroke-opacity="1.00" stroke-width="0.3"><path d="
M 65.00 68.00 
C 66.70 71.68 72.19 73.56 76.00 72.00
C 76.98 71.19 78.39 70.73 78.00 69.00
C 77.75 68.75 77.30 67.95 77.00 68.00
C 75.68 68.48 66.86 69.06 69.00 65.00
C 69.70 63.66 77.60 63.15 79.00 64.00
C 80.12 64.68 80.00 65.71 80.00 67.00
C 80.00 67.50 80.33 70.33 79.00 70.00
C 78.64 73.03 82.22 71.75 84.00 72.00
C 83.88 67.28 83.42 58.80 90.00 59.00
C 90.43 63.28 89.31 68.76 90.00 72.00
C 91.08 72.52 92.86 71.60 94.00 72.00
C 93.28 68.06 95.49 64.90 95.00 61.00
C 95.53 59.07 93.95 57.76 94.00 56.00
C 92.69 55.85 91.30 56.20 90.00 56.00
C 87.32 55.59 83.90 55.87 81.00 56.00
C 81.00 56.00 81.00 56.50 81.00 57.00
C 81.00 57.50 81.03 58.50 81.00 59.00
C 80.94 60.00 81.44 61.73 80.00 62.00
C 79.27 60.66 78.66 59.36 78.00 58.00
C 75.51 56.50 72.70 54.88 69.00 56.00
C 64.14 59.21 63.87 62.60 65.00 68.00
M 75.00 59.00 
C 74.58 66.48 65.69 57.73 75.00 59.00 Z"/>
</g>
<g fill="None" fill-opacity="0.0" stroke="#184433" stroke-opacity="1.00" stroke-width="0.3"><path d="
M 116.00 64.00 
C 116.03 64.50 116.02 65.50 116.00 66.00
C 115.94 67.92 116.03 69.37 117.00 71.00
C 117.00 71.00 116.93 71.51 117.00 72.00
C 117.16 72.23 118.50 72.04 119.00 72.00
C 122.75 71.45 125.30 71.44 129.00 72.00
C 129.64 68.71 130.55 65.29 131.00 62.00
C 131.13 61.05 131.00 59.96 131.00 59.00
C 131.00 58.71 131.19 56.11 131.00 56.00
C 129.67 56.00 128.33 56.00 127.00 56.00
C 127.79 57.54 126.25 59.10 126.00 60.00
C 126.94 64.44 125.44 69.77 120.00 69.00
C 119.15 63.85 122.84 59.08 119.00 56.00
C 116.09 58.10 115.70 59.73 116.00 64.00 Z"/>
</g>
<g fill="None" fill-opacity="0.0" stroke="#71A090" stroke-opacity="1.00" stroke-width="0.3"><path d="
M 131.00 59.00 
C 131.60 60.35 134.61 59.36 135.00 60.00
C 133.25 56.94 132.71 59.93 133.00 56.00
C 132.50 55.99 131.49 56.07 131.00 56.00
C 131.19 56.11 131.00 58.71 131.00 59.00 Z"/>
</g>
<g fill="None" fill-opacity="0.0" stroke="#7EAA9B" stroke-opacity="1.00" stroke-width="0.3"><path d="
M 144.00 59.00 
C 142.31 59.58 141.29 58.60 140.00 60.00
C 141.28 59.77 142.74 60.30 144.00 60.00
C 145.68 59.60 145.81 57.74 147.00 57.00
C 145.74 57.25 145.21 58.59 144.00 59.00 Z"/>
</g>
<g fill="None" fill-opacity="0.0" stroke="#71A292" stroke-opacity="1.00" stroke-width="0.3"><path d="
M 81.00 59.00 
C 80.54 59.63 78.41 58.24 78.00 58.00
C 78.66 59.36 79.27 60.66 80.00 62.00
C 81.44 61.73 80.94 60.00 81.00 59.00 Z"/>
</g>
<g fill="None" fill-opacity="0.0" stroke="#B0DED1" stroke-opacity="1.00" stroke-width="0.3"><path d="
M 75.00 59.00 
C 65.69 57.73 74.58 66.48 75.00 59.00 Z"/>
</g>
<g fill="None" fill-opacity="0.0" stroke="#C6F1E3" stroke-opacity="1.00" stroke-width="0.3"><path d="
M 131.00 62.00 
C 130.89 61.82 134.36 61.41 135.00 63.00
C 135.07 62.49 135.25 60.43 135.00 60.00
C 134.61 59.36 131.60 60.35 131.00 59.00
C 131.00 59.96 131.13 61.05 131.00 62.00 Z"/>
</g>
<g fill="None" fill-opacity="0.0" stroke="#D8F2EC" stroke-opacity="1.00" stroke-width="0.3"><path d="
M 153.00 59.00 
C 149.49 57.83 145.16 66.48 149.99 67.99 C 154.83 69.50 157.18 60.39 153.00 59.00 Z"/>
</g>
<g fill="None" fill-opacity="0.0" stroke="#D0ECE5" stroke-opacity="1.00" stroke-width="0.3"><path d="
M 144.00 60.00 
C 142.74 60.30 141.28 59.77 140.00 60.00
C 140.09 62.82 138.33 65.06 139.00 68.00
C 144.35 69.08 142.38 62.69 144.00 60.00 Z"/>
</g>
<g fill="None" fill-opacity="0.0" stroke="#EFF8D9" stroke-opacity="1.00" stroke-width="0.3"><path d="
M 90.00 72.00 
C 91.83 77.32 91.01 83.52 100.00 81.00
C 99.62 77.37 105.49 77.83 105.00 74.00
C 107.14 76.19 122.48 80.59 119.00 72.00
C 118.50 72.04 117.16 72.23 117.00 72.00
C 117.56 76.17 115.12 75.40 113.00 75.00
C 111.19 74.66 106.85 72.88 106.00 71.00
C 103.69 72.33 97.62 80.48 95.00 80.00
C 91.80 79.41 93.32 76.37 94.00 74.00
C 95.07 70.25 98.34 67.85 99.00 64.00
C 98.54 61.66 95.91 62.09 95.00 61.00
C 95.49 64.90 93.28 68.06 94.00 72.00
C 92.86 71.60 91.08 72.52 90.00 72.00 Z"/>
</g>
<g fill="None" fill-opacity="0.0" stroke="#89A49B" stroke-opacity="1.00" stroke-width="0.3"><path d="
M 69.00 65.00 
C 71.12 66.45 78.05 63.51 79.00 64.00
C 77.60 63.15 69.70 63.66 69.00 65.00 Z"/>
</g>
<g fill="None" fill-opacity="0.0" stroke="#D0EBE4" stroke-opacity="1.00" stroke-width="0.3"><path d="
M 69.00 65.00 
C 66.86 69.06 75.68 68.48 77.00 68.00
C 76.77 68.08 80.27 66.63 80.00 67.00
C 80.00 65.71 80.12 64.68 79.00 64.00
C 78.05 63.51 71.12 66.45 69.00 65.00 Z"/>
</g>
<g fill="None" fill-opacity="0.0" stroke="#47701F" stroke-opacity="1.00" stroke-width="0.3"><path d="
M 115.00 67.00 
C 114.54 68.81 115.41 70.28 117.00 71.00
C 116.03 69.37 115.94 67.92 116.00 66.00
C 115.89 66.26 115.09 66.65 115.00 67.00 Z"/>
</g>
<g fill="None" fill-opacity="0.0" stroke="#D1E8E2" stroke-opacity="1.00" stroke-width="0.3"><path d="
M 148.00 72.00 
C 149.19 73.16 149.38 73.55 150.00 75.00
C 150.08 75.18 151.00 75.00 151.00 75.00
C 153.62 75.01 155.62 72.02 159.00 72.00
C 159.65 69.92 159.88 68.23 160.00 66.00
C 158.84 70.32 152.22 73.19 148.00 72.00 Z"/>
</g>
<g fill="None" fill-opacity="0.0" stroke="#608B7C" stroke-opacity="1.00" stroke-width="0.3"><path d="
M 77.00 68.00 
C 77.30 67.95 77.75 68.75 78.00 69.00
C 78.25 69.25 78.86 69.66 79.00 70.00
C 80.33 70.33 80.00 67.50 80.00 67.00
C 80.27 66.63 76.77 68.08 77.00 68.00 Z"/>
</g>
<g fill="None" fill-opacity="0.0" stroke="#C3E1D7" stroke-opacity="1.00" stroke-width="0.3"><path d="
M 76.00 72.00 
C 72.19 73.56 66.70 71.68 65.00 68.00
C 65.82 71.92 70.92 76.19 76.00 72.00 Z"/>
</g>
<g fill="None" fill-opacity="0.0" stroke="#939C4D" stroke-opacity="1.00" stroke-width="0.3"><path d="
M 106.00 71.00 
C 106.85 72.88 111.19 74.66 113.00 75.00
C 109.03 73.38 109.24 69.13 106.00 71.00 Z"/>
</g>
<g fill="None" fill-opacity="0.0" stroke="#8D9866" stroke-opacity="1.00" stroke-width="0.3"><path d="
M 95.00 80.00 
C 94.26 78.43 93.83 74.95 94.00 74.00
C 93.32 76.37 91.80 79.41 95.00 80.00 Z"/>
</g>
<g fill="None" fill-opacity="0.0" stroke="#A6A7A7" stroke-opacity="1.00" stroke-width="0.3"><path d="
M 137.00 75.00 
C 133.47 77.36 129.56 73.48 126.03 75.03 C 122.51 76.58 119.47 73.40 119.00 79.00
C 125.38 75.83 133.77 82.91 137.00 75.00 Z"/>
</g>
<g fill="None" fill-opacity="0.0" stroke="#A8A7A7" stroke-opacity="1.00" stroke-width="0.3"><path d="
M 151.00 75.00 
C 151.00 75.00 150.08 75.18 150.00 75.00
C 150.50 76.40 152.82 76.28 151.00 78.00
C 148.99 76.06 146.98 75.74 145.00 78.00
C 146.52 73.53 141.47 74.63 139.00 78.00
C 140.42 73.30 137.58 76.02 137.00 79.00
C 144.87 77.88 151.05 78.85 159.00 79.00
C 158.88 74.06 154.39 75.56 151.00 75.00 Z"/>
</g>
<g fill="#FDFEFD" fill-opacity="1.00" stroke="None">
<path d="
M 0.00 120.00 
L 224.00 120.00
L 224.00 0.00
L 0.00 0.00
L 0.00 120.00
M 119.00 54.00 
C 118.97 54.50 118.76 55.80 119.00 56.00
C 122.84 59.08 119.15 63.85 120.00 69.00
C 125.44 69.77 126.94 64.44 126.00 60.00
C 126.91 52.45 129.72 55.49 136.00 54.00
C 137.43 53.66 138.90 52.67 141.00 53.00
C 142.94 53.31 145.63 56.77 147.00 57.00
C 154.82 52.14 160.40 58.51 160.00 66.00
C 159.88 68.23 159.65 69.92 159.00 72.00
C 155.62 72.02 153.62 75.01 151.00 75.00
C 154.39 75.56 158.88 74.06 159.00 79.00
C 151.05 78.85 144.87 77.88 137.00 79.00
C 137.58 76.02 140.42 73.30 139.00 78.00
C 141.47 74.63 146.52 73.53 145.00 78.00
C 146.98 75.74 148.99 76.06 151.00 78.00
C 152.82 76.28 150.50 76.40 150.00 75.00
C 149.38 73.55 149.19 73.16 148.00 72.00
C 146.72 70.75 144.53 69.90 144.00 68.00
C 142.98 76.52 129.32 70.44 135.00 63.00
C 134.36 61.41 130.89 61.82 131.00 62.00
C 130.55 65.29 129.64 68.71 129.00 72.00
C 125.30 71.44 122.75 71.45 119.00 72.00
C 122.48 80.59 107.14 76.19 105.00 74.00
C 105.49 77.83 99.62 77.37 100.00 81.00
C 91.01 83.52 91.83 77.32 90.00 72.00
C 89.31 68.76 90.43 63.28 90.00 59.00
C 83.42 58.80 83.88 67.28 84.00 72.00
C 82.22 71.75 78.64 73.03 79.00 70.00
C 78.86 69.66 78.25 69.25 78.00 69.00
C 78.39 70.73 76.98 71.19 76.00 72.00
C 70.92 76.19 65.82 71.92 65.00 68.00
C 63.87 62.60 64.14 59.21 69.00 56.00
C 71.33 54.46 72.47 54.15 75.07 54.93 C 77.68 55.71 78.86 58.75 81.00 57.00
C 81.00 56.50 81.00 56.00 81.00 56.00
C 83.04 53.89 87.43 55.66 90.00 54.00
C 89.07 52.86 88.92 51.45 89.00 50.00
C 88.86 49.55 89.00 49.00 89.00 49.00
C 84.91 47.14 86.60 39.33 91.01 40.01 C 95.42 40.68 96.91 44.51 101.00 43.00
C 101.91 42.58 103.06 40.48 104.00 40.00
C 113.11 35.38 111.76 47.34 119.00 48.00
C 119.00 50.00 119.00 52.00 119.00 54.00
M 137.00 75.00 
C 133.77 82.91 125.38 75.83 119.00 79.00
C 119.47 73.40 122.51 76.58 126.03 75.03 C 129.56 73.48 133.47 77.36 137.00 75.00 Z"/>
</g>
<g fill="#FDF6DF" fill-opacity="1.00" stroke="None">
<path d="
M 104.00 40.00 
C 107.27 39.02 111.44 40.72 112.00 44.00
C 112.17 45.02 112.24 47.00 112.00 48.00
C 113.85 47.47 116.11 48.40 118.00 48.00
C 118.00 50.00 118.00 52.00 118.00 54.00
C 118.22 53.75 119.00 54.00 119.00 54.00
C 119.00 52.00 119.00 50.00 119.00 48.00
C 111.76 47.34 113.11 35.38 104.00 40.00 Z"/>
</g>
<g fill="#F5F3CC" fill-opacity="1.00" stroke="None">
<path d="
M 89.00 49.00 
C 89.00 48.50 89.00 48.00 89.00 48.00
C 82.73 40.02 97.32 42.52 101.00 47.00
C 100.88 46.04 101.00 44.97 101.00 44.00
C 101.00 43.50 101.00 43.00 101.00 43.00
C 96.91 44.51 95.42 40.68 91.01 40.01 C 86.60 39.33 84.91 47.14 89.00 49.00 Z"/>
</g>
<g fill="#E8B991" fill-opacity="1.00" stroke="None">
<path d="
M 101.00 43.00 
C 104.34 45.24 107.36 42.67 112.00 44.00
C 111.44 40.72 107.27 39.02 104.00 40.00
C 103.06 40.48 101.91 42.58 101.00 43.00 Z"/>
</g>
<g fill="#D1DA57" fill-opacity="1.00" stroke="None">
<path d="
M 89.00 48.00 
C 92.35 50.12 99.51 61.04 99.00 64.00
C 98.34 67.85 95.07 70.25 94.00 74.00
C 93.83 74.95 94.26 78.43 95.00 80.00
C 97.62 80.48 103.69 72.33 106.00 71.00
C 109.24 69.13 109.03 73.38 113.00 75.00
C 115.12 75.40 117.56 76.17 117.00 72.00
C 116.93 71.51 117.00 71.00 117.00 71.00
C 115.41 70.28 114.54 68.81 115.00 67.00
C 111.28 59.66 115.64 57.40 117.00 49.00
C 111.43 47.94 106.07 60.59 103.00 51.00
C 102.05 49.51 101.22 48.81 101.00 47.00
C 97.32 42.52 82.73 40.02 89.00 48.00 Z"/>
</g>
<g fill="#E09253" fill-opacity="1.00" stroke="None">
<path d="
M 101.00 44.00 
C 101.51 45.53 104.93 49.42 105.00 51.00
C 107.05 51.94 111.18 51.35 112.00 48.00
C 112.24 47.00 112.17 45.02 112.00 44.00
C 107.36 42.67 104.34 45.24 101.00 43.00
C 101.00 43.00 101.00 43.50 101.00 44.00 Z"/>
</g>
<g fill="#947731" fill-opacity="1.00" stroke="None">
<path d="
M 101.00 47.00 
C 101.22 48.81 102.05 49.51 103.00 51.00
C 103.42 51.18 104.59 50.81 105.00 51.00
C 104.93 49.42 101.51 45.53 101.00 44.00
C 101.00 44.97 100.88 46.04 101.00 47.00 Z"/>
</g>
<g fill="#7A9147" fill-opacity="1.00" stroke="None">
<path d="
M 89.00 49.00 
C 89.00 49.00 88.86 49.55 89.00 50.00
C 90.62 52.01 92.82 54.33 90.00 56.00
C 91.30 56.20 92.69 55.85 94.00 56.00
C 93.95 57.76 95.53 59.07 95.00 61.00
C 95.91 62.09 98.54 61.66 99.00 64.00
C 99.51 61.04 92.35 50.12 89.00 48.00
C 89.00 48.00 89.00 48.50 89.00 49.00 Z"/>
</g>
<g fill="#EEEFAB" fill-opacity="1.00" stroke="None">
<path d="
M 105.00 51.00 
C 104.59 50.81 103.42 51.18 103.00 51.00
C 106.07 60.59 111.43 47.94 117.00 49.00
C 115.64 57.40 111.28 59.66 115.00 67.00
C 115.09 66.65 115.89 66.26 116.00 66.00
C 116.02 65.50 116.03 64.50 116.00 64.00
C 112.90 61.44 115.09 57.32 118.00 54.00
C 118.00 52.00 118.00 50.00 118.00 48.00
C 116.11 48.40 113.85 47.47 112.00 48.00
C 111.18 51.35 107.05 51.94 105.00 51.00 Z"/>
</g>
<g fill="#D8EFDA" fill-opacity="1.00" stroke="None">
<path d="
M 81.00 56.00 
C 83.90 55.87 87.32 55.59 90.00 56.00
C 92.82 54.33 90.62 52.01 89.00 50.00
C 88.92 51.45 89.07 52.86 90.00 54.00
C 87.43 55.66 83.04 53.89 81.00 56.00 Z"/>
</g>
<g fill="#1C4738" fill-opacity="1.00" stroke="None">
<path d="
M 136.00 54.00 
C 134.70 54.83 135.90 56.07 133.00 56.00
C 132.71 59.93 133.25 56.94 135.00 60.00
C 135.25 60.43 135.07 62.49 135.00 63.00
C 129.32 70.44 142.98 76.52 144.00 68.00
C 144.53 69.90 146.72 70.75 148.00 72.00
C 152.22 73.19 158.84 70.32 160.00 66.00
C 160.40 58.51 154.82 52.14 147.00 57.00
C 145.81 57.74 145.68 59.60 144.00 60.00
C 142.38 62.69 144.35 69.08 139.00 68.00
C 138.33 65.06 140.09 62.82 140.00 60.00
C 141.29 58.60 142.31 59.58 144.00 59.00
C 145.39 55.23 139.65 56.87 141.00 53.00
C 138.90 52.67 137.43 53.66 136.00 54.00
M 153.00 59.00 
C 157.18 60.39 154.83 69.50 149.99 67.99 C 145.16 66.48 149.49 57.83 153.00 59.00 Z"/>
</g>
<g fill="#D4EFE7" fill-opacity="1.00" stroke="None">
<path d="
M 144.00 59.00 
C 145.21 58.59 145.74 57.25 147.00 57.00
C 145.63 56.77 142.94 53.31 141.00 53.00
C 139.65 56.87 145.39 55.23 144.00 59.00 Z"/>
</g>
<g fill="#C1DBD2" fill-opacity="1.00" stroke="None">
<path d="
M 69.00 56.00 
C 72.70 54.88 75.51 56.50 78.00 58.00
C 78.41 58.24 80.54 59.63 81.00 59.00
C 81.03 58.50 81.00 57.50 81.00 57.00
C 78.86 58.75 77.68 55.71 75.07 54.93 C 72.47 54.15 71.33 54.46 69.00 56.00 Z"/>
</g>
<g fill="#D6EBD6" fill-opacity="1.00" stroke="None">
<path d="
M 116.00 64.00 
C 115.70 59.73 116.09 58.10 119.00 56.00
C 118.76 55.80 118.97 54.50 119.00 54.00
C 119.00 54.00 118.22 53.75 118.00 54.00
C 115.09 57.32 112.90 61.44 116.00 64.00 Z"/>
</g>
<g fill="#C7E2DA" fill-opacity="1.00" stroke="None">
<path d="
M 126.00 60.00 
C 126.25 59.10 127.79 57.54 127.00 56.00
C 128.33 56.00 129.67 56.00 131.00 56.00
C 131.49 56.07 132.50 55.99 133.00 56.00
C 135.90 56.07 134.70 54.83 136.00 54.00
C 129.72 55.49 126.91 52.45 126.00 60.00 Z"/>
</g>
<g fill="#1A4634" fill-opacity="1.00" stroke="None">
<path d="
M 65.00 68.00 
C 66.70 71.68 72.19 73.56 76.00 72.00
C 76.98 71.19 78.39 70.73 78.00 69.00
C 77.75 68.75 77.30 67.95 77.00 68.00
C 75.68 68.48 66.86 69.06 69.00 65.00
C 69.70 63.66 77.60 63.15 79.00 64.00
C 80.12 64.68 80.00 65.71 80.00 67.00
C 80.00 67.50 80.33 70.33 79.00 70.00
C 78.64 73.03 82.22 71.75 84.00 72.00
C 83.88 67.28 83.42 58.80 90.00 59.00
C 90.43 63.28 89.31 68.76 90.00 72.00
C 91.08 72.52 92.86 71.60 94.00 72.00
C 93.28 68.06 95.49 64.90 95.00 61.00
C 95.53 59.07 93.95 57.76 94.00 56.00
C 92.69 55.85 91.30 56.20 90.00 56.00
C 87.32 55.59 83.90 55.87 81.00 56.00
C 81.00 56.00 81.00 56.50 81.00 57.00
C 81.00 57.50 81.03 58.50 81.00 59.00
C 80.94 60.00 81.44 61.73 80.00 62.00
C 79.27 60.66 78.66 59.36 78.00 58.00
C 75.51 56.50 72.70 54.88 69.00 56.00
C 64.14 59.21 63.87 62.60 65.00 68.00
M 75.00 59.00 
C 74.58 66.48 65.69 57.73 75.00 59.00 Z"/>
</g>
<g fill="#184433" fill-opacity="1.00" stroke="None">
<path d="
M 116.00 64.00 
C 116.03 64.50 116.02 65.50 116.00 66.00
C 115.94 67.92 116.03 69.37 117.00 71.00
C 117.00 71.00 116.93 71.51 117.00 72.00
C 117.16 72.23 118.50 72.04 119.00 72.00
C 122.75 71.45 125.30 71.44 129.00 72.00
C 129.64 68.71 130.55 65.29 131.00 62.00
C 131.13 61.05 131.00 59.96 131.00 59.00
C 131.00 58.71 131.19 56.11 131.00 56.00
C 129.67 56.00 128.33 56.00 127.00 56.00
C 127.79 57.54 126.25 59.10 126.00 60.00
C 126.94 64.44 125.44 69.77 120.00 69.00
C 119.15 63.85 122.84 59.08 119.00 56.00
C 116.09 58.10 115.70 59.73 116.00 64.00 Z"/>
</g>
<g fill="#71A090" fill-opacity="1.00" stroke="None">
<path d="
M 131.00 59.00 
C 131.60 60.35 134.61 59.36 135.00 60.00
C 133.25 56.94 132.71 59.93 133.00 56.00
C 132.50 55.99 131.49 56.07 131.00 56.00
C 131.19 56.11 131.00 58.71 131.00 59.00 Z"/>
</g>
<g fill="#7EAA9B" fill-opacity="1.00" stroke="None">
<path d="
M 144.00 59.00 
C 142.31 59.58 141.29 58.60 140.00 60.00
C 141.28 59.77 142.74 60.30 144.00 60.00
C 145.68 59.60 145.81 57.74 147.00 57.00
C 145.74 57.25 145.21 58.59 144.00 59.00 Z"/>
</g>
<g fill="#71A292" fill-opacity="1.00" stroke="None">
<path d="
M 81.00 59.00 
C 80.54 59.63 78.41 58.24 78.00 58.00
C 78.66 59.36 79.27 60.66 80.00 62.00
C 81.44 61.73 80.94 60.00 81.00 59.00 Z"/>
</g>
<g fill="#B0DED1" fill-opacity="1.00" stroke="None">
<path d="
M 75.00 59.00 
C 65.69 57.73 74.58 66.48 75.00 59.00 Z"/>
</g>
<g fill="#C6F1E3" fill-opacity="1.00" stroke="None">
<path d="
M 131.00 62.00 
C 130.89 61.82 134.36 61.41 135.00 63.00
C 135.07 62.49 135.25 60.43 135.00 60.00
C 134.61 59.36 131.60 60.35 131.00 59.00
C 131.00 59.96 131.13 61.05 131.00 62.00 Z"/>
</g>
<g fill="#D8F2EC" fill-opacity="1.00" stroke="None">
<path d="
M 153.00 59.00 
C 149.49 57.83 145.16 66.48 149.99 67.99 C 154.83 69.50 157.18 60.39 153.00 59.00 Z"/>
</g>
<g fill="#D0ECE5" fill-opacity="1.00" stroke="None">
<path d="
M 144.00 60.00 
C 142.74 60.30 141.28 59.77 140.00 60.00
C 140.09 62.82 138.33 65.06 139.00 68.00
C 144.35 69.08 142.38 62.69 144.00 60.00 Z"/>
</g>
<g fill="#EFF8D9" fill-opacity="1.00" stroke="None">
<path d="
M 90.00 72.00 
C 91.83 77.32 91.01 83.52 100.00 81.00
C 99.62 77.37 105.49 77.83 105.00 74.00
C 107.14 76.19 122.48 80.59 119.00 72.00
C 118.50 72.04 117.16 72.23 117.00 72.00
C 117.56 76.17 115.12 75.40 113.00 75.00
C 111.19 74.66 106.85 72.88 106.00 71.00
C 103.69 72.33 97.62 80.48 95.00 80.00
C 91.80 79.41 93.32 76.37 94.00 74.00
C 95.07 70.25 98.34 67.85 99.00 64.00
C 98.54 61.66 95.91 62.09 95.00 61.00
C 95.49 64.90 93.28 68.06 94.00 72.00
C 92.86 71.60 91.08 72.52 90.00 72.00 Z"/>
</g>
<g fill="#89A49B" fill-opacity="1.00" stroke="None">
<path d="
M 69.00 65.00 
C 71.12 66.45 78.05 63.51 79.00 64.00
C 77.60 63.15 69.70 63.66 69.00 65.00 Z"/>
</g>
<g fill="#D0EBE4" fill-opacity="1.00" stroke="None">
<path d="
M 69.00 65.00 
C 66.86 69.06 75.68 68.48 77.00 68.00
C 76.77 68.08 80.27 66.63 80.00 67.00
C 80.00 65.71 80.12 64.68 79.00 64.00
C 78.05 63.51 71.12 66.45 69.00 65.00 Z"/>
</g>
<g fill="#47701F" fill-opacity="1.00" stroke="None">
<path d="
M 115.00 67.00 
C 114.54 68.81 115.41 70.28 117.00 71.00
C 116.03 69.37 115.94 67.92 116.00 66.00
C 115.89 66.26 115.09 66.65 115.00 67.00 Z"/>
</g>
<g fill="#D1E8E2" fill-opacity="1.00" stroke="None">
<path d="
M 148.00 72.00 
C 149.19 73.16 149.38 73.55 150.00 75.00
C 150.08 75.18 151.00 75.00 151.00 75.00
C 153.62 75.01 155.62 72.02 159.00 72.00
C 159.65 69.92 159.88 68.23 160.00 66.00
C 158.84 70.32 152.22 73.19 148.00 72.00 Z"/>
</g>
<g fill="#608B7C" fill-opacity="1.00" stroke="None">
<path d="
M 77.00 68.00 
C 77.30 67.95 77.75 68.75 78.00 69.00
C 78.25 69.25 78.86 69.66 79.00 70.00
C 80.33 70.33 80.00 67.50 80.00 67.00
C 80.27 66.63 76.77 68.08 77.00 68.00 Z"/>
</g>
<g fill="#C3E1D7" fill-opacity="1.00" stroke="None">
<path d="
M 76.00 72.00 
C 72.19 73.56 66.70 71.68 65.00 68.00
C 65.82 71.92 70.92 76.19 76.00 72.00 Z"/>
</g>
<g fill="#939C4D" fill-opacity="1.00" stroke="None">
<path d="
M 106.00 71.00 
C 106.85 72.88 111.19 74.66 113.00 75.00
C 109.03 73.38 109.24 69.13 106.00 71.00 Z"/>
</g>
<g fill="#8D9866" fill-opacity="1.00" stroke="None">
<path d="
M 95.00 80.00 
C 94.26 78.43 93.83 74.95 94.00 74.00
C 93.32 76.37 91.80 79.41 95.00 80.00 Z"/>
</g>
<g fill="#A6A7A7" fill-opacity="1.00" stroke="None">
<path d="
M 137.00 75.00 
C 133.47 77.36 129.56 73.48 126.03 75.03 C 122.51 76.58 119.47 73.40 119.00 79.00
C 125.38 75.83 133.77 82.91 137.00 75.00 Z"/>
</g>
<g fill="#A8A7A7" fill-opacity="1.00" stroke="None">
<path d="
M 151.00 75.00 
C 151.00 75.00 150.08 75.18 150.00 75.00
C 150.50 76.40 152.82 76.28 151.00 78.00
C 148.99 76.06 146.98 75.74 145.00 78.00
C 146.52 73.53 141.47 74.63 139.00 78.00
C 140.42 73.30 137.58 76.02 137.00 79.00
C 144.87 77.88 151.05 78.85 159.00 79.00
C 158.88 74.06 154.39 75.56 151.00 75.00 Z"/>
</g>
</svg>